PathFileType	4	(X/Y/Z)	\\Move.snu.ac.kr\motion\Animal\091204_091205_Bird\091205_bird\Project 2\Capture day 2\Session 1\pigeon_027.trc
DataRate	CameraRate	NumFrames	NumMarkers	Units	OrigDataRate	OrigDataStartFrame	OrigNumFrames
240.0	240.0	23	14	mm	240.0	80	2723
Frame#	Time	14MarkersBird:Head			14MarkersBird:C_back			14MarkersBird:Spine			14MarkersBird:L-shoulder			14MarkersBird:L-elbow			14MarkersBird:L-wrist			14MarkersBird:L-hand			14MarkersBird:R-shoulder			14MarkersBird:R-elbow			14MarkersBird:R-Wrist			14MarkersBird:R-hand			14MarkersBird:C_Tail			14MarkersBird:L-Tale			14MarkersBird:R-Tale			
		X1	Y1	Z1	X2	Y2	Z2	X3	Y3	Z3	X4	Y4	Z4	X5	Y5	Z5	X6	Y6	Z6	X7	Y7	Z7	X8	Y8	Z8	X9	Y9	Z9	X10	Y10	Z10	X11	Y11	Z11	X12	Y12	Z12	X13	Y13	Z13	X14	Y14	Z14	

1493	6.217	-974.59387	1519.08533	427.45773	-991.97699	1500.93909	374.44913	-1008.01080	1489.54895	322.61102	-957.05548	1502.54651	395.46286	-946.81873	1512.48474	374.77084	-909.21179	1505.23486	393.83875	-882.92340	1511.04089	397.56122	-1006.00293	1484.82690	409.86078	-1031.33325	1479.84351	401.05673	-1044.29602	1454.88416	431.47241	-1068.48596	1432.89941	446.66110	-1013.55762	1410.97144	223.33734	-928.87616	1476.36023	252.81047	-1085.59241	1399.80957	311.77911	
1494	6.221	-973.14264	1519.94531	430.93292	-990.78345	1503.61853	377.57111	-1005.49219	1493.25220	325.31918	-955.48883	1504.19006	399.38617	-941.88159	1509.67651	379.25171	-909.84070	1496.17053	403.99396	-884.50116	1493.51221	411.32816	-1004.14539	1485.93201	412.84781	-1026.94641	1474.96997	406.14868	-1029.53784	1447.96497	437.15253	-1044.33008	1420.06287	454.25415	-1007.93896	1415.57080	224.90155	-925.25378	1481.18079	256.24896	-1081.10229	1401.40906	312.43661	
1495	6.225	-971.63776	1520.40735	434.62610	-989.70935	1506.12366	380.85837	-1003.01758	1496.22205	328.53836	-954.14893	1506.14905	403.37723	-938.40564	1507.10986	383.17471	-913.38422	1490.36182	413.54498	-891.72278	1480.04358	424.24969	-1002.28729	1487.38208	415.73331	-1021.95667	1471.68896	410.25494	-1014.72192	1445.74731	441.32187	-1019.00739	1414.91736	459.04935	-1001.96002	1420.60303	226.46223	-921.84283	1486.24817	259.84851	-1076.49036	1402.97778	312.40775	
1496	6.229	-970.05145	1520.48401	438.58093	-988.47504	1508.37854	384.44913	-1000.41931	1498.79810	332.00476	-952.87909	1508.16089	407.45407	-936.08295	1505.47595	386.30804	-918.09576	1488.81958	421.59531	-901.98822	1472.93091	435.23853	-1000.45007	1488.98828	418.69717	-1017.47968	1470.23730	413.03653	-1002.39044	1447.94971	444.29205	-996.37274	1417.03455	461.78397	-995.72675	1426.09473	228.04430	-918.61047	1491.54822	263.73273	-1071.71240	1404.62708	311.43195	
1497	6.233	-968.37262	1520.21472	442.82617	-986.90436	1510.34912	388.43039	-997.61755	1500.98267	335.70554	-951.54169	1509.94910	411.65552	-934.56458	1505.34180	388.58466	-922.13550	1491.57666	427.55615	-911.98474	1472.75146	443.63489	-998.66754	1490.64209	421.91299	-1014.38904	1470.50598	414.47418	-994.58569	1453.32007	446.62311	-979.74695	1424.39587	463.63519	-989.32501	1431.87329	229.79890	-915.45746	1497.07617	268.07343	-1066.55139	1406.35339	309.53345	
1498	6.238	-966.60828	1519.64807	447.35703	-984.98462	1512.00269	392.79236	-994.61926	1502.77026	339.65683	-950.05438	1511.35156	415.99530	-933.63489	1507.01587	390.10410	-924.26550	1497.76086	431.33511	-918.93726	1478.28223	449.27667	-996.90649	1492.25073	425.45172	-1013.02252	1472.29822	414.88498	-992.13568	1460.16760	448.79276	-971.00610	1433.97046	465.60507	-982.79919	1437.58008	231.93578	-912.22821	1502.74792	273.05621	-1060.67639	1407.99292	307.08618	
1499	6.242	-964.78253	1518.83337	452.12637	-982.77795	1513.26843	397.42419	-991.47388	1504.22766	343.80713	-948.39447	1512.32800	420.41296	-933.30536	1510.45129	391.19492	-924.27313	1506.16125	433.35919	-921.42810	1487.33167	452.45410	-995.07288	1493.65540	429.25510	-1013.08014	1475.55005	414.72937	-994.48157	1467.15662	451.00214	-970.24512	1442.79370	468.00235	-976.13916	1442.76221	234.61139	-908.72046	1508.33093	278.85007	-1053.83875	1409.29431	304.75650	
1500	6.246	-962.93378	1517.82397	457.04340	-980.32867	1514.05347	402.16367	-988.23920	1505.38696	348.08734	-946.56799	1512.90942	424.82446	-933.79456	1515.19482	392.37857	-922.94659	1515.78528	434.33743	-919.54401	1497.85522	453.63184	-993.11945	1494.68933	433.18726	-1013.71576	1480.34167	414.43222	-1000.19476	1473.82251	453.13522	-976.16138	1449.16748	470.31183	-969.29474	1447.00989	237.88918	-904.73627	1513.47949	285.56110	-1046.08008	1410.05164	303.31573	
1501	6.250	-961.10565	1516.68750	461.99237	-977.68561	1514.33350	406.86966	-984.94592	1506.26599	352.43253	-944.60645	1513.19861	429.23691	-935.39618	1520.46057	394.19318	-921.63190	1525.91284	434.93451	-914.57587	1508.63342	452.97751	-991.09869	1495.38000	437.13272	-1013.83667	1486.73413	414.32547	-1007.57178	1480.48438	454.80759	-986.79663	1453.28223	471.51294	-962.21051	1450.07080	241.78627	-900.18689	1517.86694	293.16141	-1037.84216	1410.19617	303.39603	
1502	6.254	-959.33563	1515.50354	466.87363	-974.88641	1514.18103	411.46371	-981.60352	1506.88818	356.80804	-942.60565	1513.38037	433.77222	-938.27368	1525.35791	396.98325	-921.59937	1535.81348	435.62567	-908.63824	1519.29785	450.24203	-989.08173	1496.03992	441.04932	-1012.48419	1494.41016	414.66327	-1014.90131	1487.74719	455.53992	-1000.15588	1456.83228	470.63919	-954.87469	1451.90295	246.30161	-895.18408	1521.31824	301.42148	-1029.86902	1409.77979	305.27191	
1503	6.258	-957.65521	1514.37964	471.61819	-972.16559	1513.85535	416.01071	-978.22217	1507.29065	361.19644	-940.73889	1513.62903	438.55197	-942.27679	1529.16919	400.81860	-923.53601	1544.68542	436.75381	-904.19678	1529.99109	445.37555	-987.03717	1497.02026	444.92819	-1009.19342	1502.51733	415.66409	-1020.62482	1495.95801	455.10217	-1014.43597	1461.97754	467.23486	-947.36621	1452.66443	251.38420	-890.02197	1523.85669	309.89871	-1022.93854	1408.92102	308.83698	
1504	6.262	-956.07550	1513.42969	476.20117	-970.33789	1513.88354	420.76721	-974.82556	1507.50513	365.57745	-939.19525	1514.00989	443.60391	-946.89075	1531.51501	405.55319	-927.39398	1551.93945	438.58224	-903.28558	1540.95422	439.25909	-984.84155	1498.36572	448.75449	-1004.08899	1509.97058	417.46976	-1023.62708	1505.02271	453.82724	-1027.91321	1470.41309	461.54044	-939.85736	1452.64160	256.89960	-885.06268	1525.68103	318.03430	-1017.59875	1407.80750	313.76535	
1505	6.267	-954.58527	1512.72583	480.65417	-968.77777	1513.86536	425.44632	-971.44037	1507.53955	369.92099	-938.08600	1514.46265	448.85037	-951.59198	1532.43896	410.89151	-932.60394	1557.48096	441.23233	-906.78156	1552.18408	433.60535	-982.45074	1499.75806	452.52945	-997.71899	1515.95850	420.07001	-1023.57843	1514.54065	452.45413	-1038.79041	1482.82861	454.41400	-932.57043	1452.12146	262.64584	-880.61340	1527.12036	325.32947	-1014.03796	1406.70447	319.65732	
1506	6.271	-953.16376	1512.28088	485.06030	-967.10773	1513.53955	429.85455	-968.08038	1507.37781	374.20050	-937.36859	1514.84253	454.12775	-955.94635	1532.29932	416.58569	-938.42566	1561.63513	444.63965	-914.35327	1563.27234	430.05240	-980.00195	1500.77222	456.28821	-990.79578	1520.22314	423.27942	-1020.90448	1524.00647	451.69537	-1045.40540	1498.71533	447.07327	-925.72607	1451.28931	268.40067	-876.86188	1528.53516	331.50903	-1012.09619	1405.89124	326.11609	
1507	6.275	-951.81403	1512.07996	489.50076	-965.32263	1512.92297	434.00687	-964.74213	1506.98022	378.38873	-936.85742	1515.02271	459.25116	-958.81000	1531.47278	422.64133	-944.18018	1564.81982	448.66492	-924.96082	1573.41174	429.43082	-977.72308	1501.18347	460.08533	-983.94397	1522.86804	427.13730	-1016.38208	1532.89197	452.06754	-1046.77100	1516.64722	440.77145	-919.51874	1450.25037	273.95038	-873.84741	1530.15405	336.61072	-1011.30194	1405.51843	332.78961	
1508	6.279	-950.56525	1512.06213	493.98889	-963.44446	1512.07092	437.95767	-961.42273	1506.28320	382.43484	-936.32245	1514.96838	464.10483	-960.32770	1530.51135	428.63184	-949.26929	1567.34338	453.25092	-937.18451	1581.61328	431.74475	-975.75500	1501.04370	463.94720	-977.94226	1523.97876	432.27463	-1010.87079	1540.62549	453.95236	-1043.01111	1534.81018	436.61539	-914.10504	1449.13428	279.10132	-871.39813	1531.91016	340.99124	-1010.94397	1405.51013	339.32925	
1509	6.283	-949.44238	1512.11938	498.46582	-961.49579	1511.04041	441.76306	-958.12085	1505.22778	386.28290	-935.60059	1514.73047	468.66266	-961.06128	1529.81970	435.08359	-953.03693	1569.43018	458.37918	-949.17792	1587.19580	436.51160	-974.08502	1500.52417	467.85266	-973.99506	1524.01196	438.84177	-1005.39520	1546.54614	457.54855	-1035.52075	1551.42871	435.55945	-909.57556	1448.14685	283.70065	-869.13617	1533.46741	345.20224	-1010.28632	1405.61914	345.37167	
1510	6.287	-948.45673	1512.15100	502.87219	-959.49945	1509.88806	445.47900	-954.81903	1503.84302	389.92111	-934.62347	1514.41675	472.97137	-960.95709	1529.62610	442.04565	-954.73737	1571.28821	463.86517	-958.75604	1590.30933	443.03391	-972.64111	1499.74890	471.77063	-971.42548	1523.57678	446.00858	-1001.23584	1550.00818	462.65134	-1026.93250	1564.92957	438.19330	-905.91583	1447.54443	287.67728	-866.64606	1534.49023	349.73044	-1008.83771	1405.61511	350.59137	
1511	6.292	-947.61639	1512.10449	507.19769	-957.47797	1508.67139	449.16156	-951.46204	1502.30688	393.45554	-933.37280	1514.13062	477.12552	-959.70374	1529.96924	448.93311	-953.61450	1572.96790	469.26053	-963.84955	1592.01416	450.55255	-971.39526	1498.75818	475.69580	-969.80396	1522.70654	453.52429	-999.62708	1550.56580	468.52441	-1020.62714	1573.93726	444.25153	-902.97913	1447.55542	291.10135	-863.71027	1534.86377	354.80563	-1006.47778	1405.44885	354.78882	
1512	6.296	-946.91455	1511.98425	511.46249	-955.45392	1507.44653	452.86679	-948.02863	1500.92444	397.10022	-931.85333	1513.89771	481.24664	-957.17316	1530.66626	455.21198	-949.16162	1574.22876	474.09775	-963.05804	1593.67554	458.41541	-970.34204	1497.54175	479.63861	-969.25092	1521.21985	461.11252	-1001.13867	1548.06958	474.17523	-1019.51172	1577.32190	452.42508	-900.49969	1448.27722	294.21927	-860.40784	1534.70300	360.39038	-1003.37775	1405.21985	357.98846	
1513	6.300	-946.31177	1511.83069	515.70685	-953.45001	1506.27112	456.65070	-944.69574	1499.94202	401.01828	-930.11621	1513.64526	485.46808	-953.45313	1531.48035	460.90613	-941.58527	1574.77026	478.41910	-956.01062	1595.99963	466.27136	-969.41998	1496.07043	483.62045	-969.91119	1519.20630	467.78674	-1005.28174	1542.60608	478.91196	-1024.44641	1574.39380	460.91418	-898.13983	1449.60437	297.39343	-857.00549	1534.24622	366.27893	-999.78961	1404.99939	360.48639	
1514	6.304	-945.73547	1511.68298	519.98438	-951.48889	1505.20142	460.56934	-941.80078	1499.39526	405.26160	-928.27496	1513.25867	489.91150	-948.55084	1532.61792	466.22964	-931.72504	1574.32410	482.87839	-943.35187	1598.39185	474.15997	-968.51917	1494.31262	487.68771	-971.69543	1516.76440	472.71082	-1010.75970	1534.42529	482.72430	-1033.74780	1565.07690	468.50208	-895.55798	1451.25195	300.97122	-853.76947	1533.75293	372.23291	-995.89606	1404.73486	362.74588	
1515	6.308	-945.11798	1511.56433	524.34070	-949.59326	1504.29468	464.67877	-939.60150	1499.16333	409.83728	-926.46466	1512.66809	494.63828	-942.32306	1534.45728	471.22754	-920.50830	1572.48535	488.28601	-926.55225	1599.17407	482.57443	-967.55743	1492.23889	491.90494	-974.27435	1513.62610	476.21991	-1016.08612	1523.89819	486.26041	-1044.30737	1549.92334	475.33136	-892.49969	1452.87952	305.16776	-850.84467	1533.41797	378.10687	-991.80328	1404.30945	365.20346	
